<?xml version="1.0" encoding="utf-8"?>
<!-- Generator: Adobe Illustrator 24.3.0, SVG Export Plug-In . SVG Version: 6.00 Build 0)  -->
<svg version="1.1" id="PTPT" xmlns="http://www.w3.org/2000/svg" xmlns:xlink="http://www.w3.org/1999/xlink" x="0px" y="0px"
	 width="139.622px" height="40px" viewBox="0 0 139.622 40" enable-background="new 0 0 139.622 40" xml:space="preserve">
<g>
	<g>
		<g>
			<g>
				<g>
					<g>
						<path fill="#A6A6A6" d="M130.092,0H9.535C9.168,0,8.806,0,8.44,0.002C8.134,0.004,7.83,0.01,7.521,0.015
							C6.855,0.031,6.182,0.072,5.517,0.191C4.848,0.309,4.226,0.509,3.616,0.818C3.018,1.125,2.471,1.523,1.998,1.997
							C1.519,2.471,1.123,3.02,0.819,3.618C0.508,4.227,0.311,4.852,0.194,5.521C0.074,6.184,0.032,6.854,0.015,7.523
							C0.006,7.83,0.005,8.138,0,8.444C0,8.807,0,9.17,0,9.536v20.929c0,0.369,0,0.73,0,1.094c0.005,0.31,0.006,0.611,0.015,0.922
							c0.017,0.67,0.059,1.34,0.179,2.002c0.117,0.67,0.314,1.298,0.625,1.904c0.303,0.596,0.7,1.145,1.178,1.614
							c0.473,0.478,1.02,0.875,1.619,1.179c0.609,0.312,1.231,0.51,1.901,0.631c0.665,0.119,1.338,0.158,2.004,0.177
							c0.309,0.007,0.613,0.011,0.919,0.011C8.806,40,9.168,40,9.535,40h120.558c0.359,0,0.725,0,1.084-0.002
							c0.305,0,0.617-0.004,0.922-0.011c0.67-0.019,1.342-0.058,2-0.177c0.67-0.121,1.293-0.318,1.908-0.631
							c0.598-0.304,1.145-0.701,1.617-1.179c0.477-0.47,0.873-1.019,1.182-1.614c0.307-0.606,0.506-1.234,0.619-1.904
							c0.123-0.662,0.162-1.332,0.186-2.002c0.004-0.311,0.004-0.611,0.004-0.922c0.008-0.363,0.008-0.725,0.008-1.094V9.536
							c0-0.366,0-0.729-0.008-1.092c0-0.307,0-0.614-0.004-0.921c-0.023-0.67-0.062-1.34-0.186-2.002
							c-0.113-0.67-0.312-1.295-0.619-1.903c-0.309-0.599-0.705-1.147-1.182-1.621c-0.473-0.474-1.02-0.872-1.617-1.179
							c-0.615-0.31-1.238-0.51-1.908-0.627c-0.658-0.119-1.33-0.16-2-0.177c-0.305-0.005-0.617-0.011-0.922-0.013
							C130.817,0,130.452,0,130.092,0L130.092,0z"/>
						<path d="M8.445,39.125c-0.305,0-0.602-0.004-0.904-0.011c-0.559-0.016-1.222-0.047-1.869-0.163
							c-0.61-0.11-1.153-0.29-1.657-0.548c-0.521-0.265-0.99-0.606-1.397-1.017c-0.414-0.406-0.754-0.873-1.021-1.396
							c-0.259-0.505-0.437-1.047-0.543-1.657c-0.122-0.673-0.153-1.355-0.166-1.875c-0.006-0.211-0.015-0.913-0.015-0.913V8.444
							c0,0,0.009-0.691,0.015-0.895c0.013-0.524,0.044-1.206,0.166-1.872C1.16,5.064,1.337,4.522,1.597,4.016
							c0.266-0.524,0.606-0.994,1.015-1.398c0.414-0.414,0.884-0.757,1.402-1.022c0.514-0.261,1.055-0.439,1.653-0.544
							C6.341,0.931,7.023,0.9,7.543,0.887l0.902-0.012h122.726l0.913,0.013c0.513,0.013,1.195,0.043,1.858,0.163
							c0.602,0.105,1.147,0.285,1.671,0.548c0.513,0.263,0.982,0.605,1.392,1.016c0.409,0.406,0.752,0.878,1.023,1.404
							c0.258,0.511,0.434,1.053,0.535,1.649c0.116,0.631,0.152,1.279,0.174,1.887c0.003,0.283,0.003,0.587,0.003,0.89
							c0.008,0.375,0.008,0.732,0.008,1.092v20.929c0,0.363,0,0.718-0.008,1.075c0,0.325,0,0.623-0.004,0.93
							c-0.021,0.589-0.057,1.236-0.171,1.854c-0.104,0.613-0.279,1.155-0.54,1.67c-0.27,0.52-0.612,0.989-1.016,1.386
							c-0.413,0.418-0.882,0.759-1.399,1.022c-0.519,0.264-1.048,0.438-1.668,0.55c-0.641,0.116-1.304,0.147-1.869,0.163
							c-0.293,0.007-0.6,0.011-0.897,0.011l-1.084,0.002L8.445,39.125z"/>
					</g>
				</g>
			</g>
			<g id="XMLID_62_">
				<g id="XMLID_63_">
					<g>
						<path fill="#FFFFFF" d="M46.039,27.84h-4.737l-1.137,3.359h-2.007l4.487-12.428h2.084l4.487,12.428h-2.041L46.039,27.84z
							 M41.793,26.29h3.755l-1.852-5.451h-0.052L41.793,26.29z"/>
						<path fill="#FFFFFF" d="M58.898,26.669c0,2.817-1.507,4.624-3.781,4.624c-1.292,0-2.317-0.576-2.851-1.585h-0.043v4.488h-1.86
							V22.139h1.8v1.507h0.034c0.517-0.973,1.619-1.601,2.885-1.601C57.382,22.045,58.898,23.861,58.898,26.669z M56.986,26.669
							c0-1.834-0.947-3.04-2.394-3.04c-1.421,0-2.377,1.231-2.377,3.04c0,1.826,0.956,3.049,2.377,3.049
							C56.038,29.718,56.986,28.521,56.986,26.669z"/>
						<path fill="#FFFFFF" d="M68.862,26.669c0,2.817-1.507,4.624-3.781,4.624c-1.292,0-2.317-0.576-2.851-1.585h-0.043v4.488h-1.86
							V22.139h1.8v1.507h0.034c0.517-0.973,1.619-1.601,2.885-1.601C67.347,22.045,68.862,23.861,68.862,26.669z M66.95,26.669
							c0-1.834-0.947-3.04-2.394-3.04c-1.421,0-2.377,1.231-2.377,3.04c0,1.826,0.956,3.049,2.377,3.049
							C66.003,29.718,66.95,28.521,66.95,26.669z"/>
						<path fill="#FFFFFF" d="M70.361,18.772h1.86v12.428h-1.86V18.772z"/>
						<path fill="#FFFFFF" d="M81.902,28.537c-0.25,1.646-1.852,2.774-3.902,2.774c-2.635,0-4.271-1.766-4.271-4.6
							c0-2.841,1.645-4.685,4.194-4.685c2.506,0,4.082,1.723,4.082,4.471v0.637h-6.399v0.113c0,1.55,0.973,2.565,2.437,2.565
							c1.034,0,1.842-0.49,2.092-1.275H81.902z M75.615,25.834h4.53c-0.044-1.387-0.93-2.3-2.222-2.3
							C76.639,23.534,75.71,24.464,75.615,25.834z"/>
						<path fill="#FFFFFF" d="M98.05,31.199v-9.147h-0.06l-3.747,9.053h-1.43l-3.755-9.053h-0.06v9.147h-1.757V18.772h2.23
							l4.022,9.809h0.069l4.015-9.809h2.239v12.428H98.05z"/>
						<path fill="#FFFFFF" d="M109.722,31.199h-1.783V29.64h-0.042c-0.517,1.086-1.422,1.663-2.809,1.663
							c-1.972,0-3.178-1.275-3.178-3.351v-5.813h1.86v5.452c0,1.378,0.655,2.11,1.937,2.11c1.344,0,2.154-0.93,2.154-2.343v-5.219
							h1.86V31.199z"/>
						<path fill="#FFFFFF" d="M115.012,22.035c2.007,0,3.445,1.112,3.489,2.712h-1.749c-0.077-0.8-0.758-1.291-1.791-1.291
							c-1.007,0-1.68,0.464-1.68,1.171c0,0.542,0.448,0.904,1.387,1.137l1.525,0.353c1.826,0.44,2.515,1.11,2.515,2.438
							c0,1.635-1.55,2.756-3.764,2.756c-2.136,0-3.574-1.094-3.712-2.748h1.842c0.13,0.869,0.827,1.336,1.956,1.336
							c1.11,0,1.809-0.457,1.809-1.181c0-0.56-0.345-0.861-1.292-1.102l-1.619-0.396c-1.636-0.396-2.463-1.232-2.463-2.489
							C111.463,23.129,112.901,22.035,115.012,22.035z"/>
						<path fill="#FFFFFF" d="M120.157,19.752c0-0.594,0.482-1.068,1.076-1.068c0.603,0,1.085,0.474,1.085,1.068
							c0,0.586-0.482,1.06-1.085,1.06C120.639,20.812,120.157,20.338,120.157,19.752z M120.302,22.139h1.86v9.061h-1.86V22.139z"/>
						<path fill="#FFFFFF" d="M130.175,25.257c-0.163-0.957-0.913-1.671-2.136-1.671c-1.43,0-2.377,1.197-2.377,3.083
							c0,1.929,0.955,3.093,2.394,3.093c1.154,0,1.912-0.578,2.119-1.628h1.791c-0.207,1.904-1.732,3.179-3.927,3.179
							c-2.584,0-4.272-1.766-4.272-4.643c0-2.817,1.688-4.643,4.255-4.643c2.325,0,3.772,1.465,3.927,3.23H130.175z"/>
					</g>
				</g>
			</g>
			<g>
				<defs>
					<rect id="SVGID_1_" x="7.548" y="7.417" width="25.163" height="25.163"/>
				</defs>
				<clipPath id="SVGID_2_">
					<use xlink:href="#SVGID_1_"  overflow="visible"/>
				</clipPath>
				<g clip-path="url(#SVGID_2_)">
					<defs>
						<path id="SVGID_3_" d="M24.84,7.417h-9.42c-0.301,0-0.601,0-0.902,0.002c-0.253,0.002-0.506,0.004-0.759,0.011
							c-0.551,0.015-1.108,0.047-1.653,0.145c-0.553,0.099-1.068,0.262-1.571,0.518c-0.494,0.252-0.946,0.58-1.338,0.972
							c-0.392,0.392-0.72,0.844-0.972,1.338c-0.256,0.503-0.418,1.018-0.518,1.572c-0.098,0.545-0.13,1.101-0.145,1.653
							c-0.007,0.253-0.01,0.506-0.011,0.759c-0.002,0.301-0.002,0.601-0.002,0.902v9.42c0,0.301,0,0.601,0.002,0.902
							c0.002,0.253,0.004,0.506,0.011,0.759c0.015,0.551,0.047,1.107,0.145,1.653c0.099,0.554,0.262,1.069,0.518,1.572
							c0.252,0.494,0.58,0.946,0.972,1.338c0.392,0.392,0.844,0.721,1.338,0.972c0.503,0.256,1.018,0.418,1.571,0.518
							c0.545,0.098,1.102,0.131,1.653,0.145c0.253,0.007,0.506,0.01,0.759,0.011c0.301,0.002,0.601,0.002,0.902,0.002h9.42
							c0.301,0,0.601,0,0.902-0.002c0.253-0.002,0.506-0.004,0.759-0.011c0.551-0.015,1.108-0.047,1.653-0.145
							c0.553-0.099,1.068-0.262,1.571-0.518c0.494-0.251,0.946-0.58,1.338-0.972c0.392-0.392,0.72-0.844,0.972-1.338
							c0.256-0.503,0.418-1.018,0.518-1.572c0.098-0.545,0.13-1.101,0.145-1.653c0.007-0.253,0.01-0.506,0.011-0.759
							c0.002-0.301,0.002-0.601,0.002-0.902v-9.42c0-0.301,0-0.601-0.002-0.902c-0.002-0.253-0.004-0.506-0.011-0.759
							c-0.015-0.551-0.047-1.107-0.145-1.653c-0.099-0.554-0.262-1.069-0.518-1.572c-0.252-0.494-0.58-0.946-0.972-1.338
							c-0.392-0.392-0.844-0.721-1.338-0.972c-0.503-0.256-1.018-0.418-1.571-0.518c-0.545-0.098-1.102-0.131-1.653-0.145
							c-0.253-0.007-0.506-0.01-0.759-0.011c-0.263-0.002-0.525-0.002-0.788-0.002C24.916,7.417,24.878,7.417,24.84,7.417"/>
					</defs>
					<clipPath id="SVGID_4_">
						<use xlink:href="#SVGID_3_"  overflow="visible"/>
					</clipPath>
				</g>
				<g clip-path="url(#SVGID_2_)">
					<defs>
						<rect id="SVGID_5_" x="7.548" y="7.417" width="25.163" height="25.163"/>
					</defs>
					<clipPath id="SVGID_6_">
						<use xlink:href="#SVGID_5_"  overflow="visible"/>
					</clipPath>
				</g>
			</g>
		</g>
	</g>
	<g>
		<g>
			<path fill="#FFFFFF" d="M40.796,14.586l-2.134-5.967h1.009l1.609,4.809h0.07l1.601-4.809h0.984l-2.121,5.967H40.796z"/>
			<path fill="#FFFFFF" d="M48.361,13.37c-0.203,0.807-0.922,1.303-1.952,1.303c-1.291,0-2.08-0.885-2.08-2.324
				c0-1.439,0.806-2.353,2.076-2.353c1.253,0,2.01,0.856,2.01,2.27v0.31h-3.18v0.05c0.029,0.79,0.488,1.29,1.199,1.29
				c0.538,0,0.906-0.194,1.071-0.546H48.361z M45.234,11.919h2.274c-0.021-0.707-0.451-1.167-1.108-1.167
				C45.743,10.753,45.284,11.216,45.234,11.919z"/>
			<path fill="#FFFFFF" d="M49.607,10.083h0.856v0.69h0.066c0.128-0.442,0.628-0.765,1.215-0.765c0.132,0,0.302,0.012,0.397,0.037
				v0.877c-0.074-0.025-0.339-0.054-0.496-0.054c-0.674,0-1.149,0.426-1.149,1.059v2.659h-0.889V10.083z"/>
			<path fill="#FFFFFF" d="M55.566,10.083h0.856v0.715h0.066c0.219-0.5,0.666-0.802,1.344-0.802c1.005,0,1.559,0.604,1.559,1.675
				v2.915h-0.889v-2.692c0-0.724-0.314-1.083-0.972-1.083c-0.658,0-1.075,0.438-1.075,1.141v2.634h-0.889V10.083z"/>
			<path fill="#FFFFFF" d="M60.509,13.313c0-0.811,0.604-1.278,1.675-1.344l1.22-0.07v-0.389c0-0.476-0.314-0.744-0.922-0.744
				c-0.497,0-0.84,0.182-0.939,0.5h-0.86c0.091-0.773,0.819-1.27,1.84-1.27c1.129,0,1.766,0.562,1.766,1.513v3.077h-0.856v-0.633
				h-0.07c-0.269,0.451-0.761,0.707-1.353,0.707C61.142,14.66,60.509,14.135,60.509,13.313z M63.404,12.928v-0.376l-1.1,0.07
				c-0.621,0.042-0.902,0.252-0.902,0.649c0,0.405,0.352,0.641,0.835,0.641C62.908,13.912,63.404,13.486,63.404,12.928z"/>
		</g>
		<g>
			<path fill="#FFFFFF" d="M46.035,27.843h-4.733l-1.137,3.356H38.16l4.483-12.418h2.083l4.483,12.418h-2.039L46.035,27.843z
				 M41.792,26.294h3.752l-1.85-5.448h-0.052L41.792,26.294z"/>
			<path fill="#FFFFFF" d="M58.893,26.673c0,2.813-1.506,4.621-3.778,4.621c-1.29,0-2.314-0.577-2.849-1.584h-0.043v4.484h-1.858
				V22.146h1.799v1.506h0.034c0.517-0.972,1.618-1.601,2.883-1.601C57.378,22.051,58.893,23.867,58.893,26.673z M56.982,26.673
				c0-1.833-0.947-3.038-2.393-3.038c-1.42,0-2.375,1.23-2.375,3.038c0,1.824,0.955,3.046,2.375,3.046
				C56.035,29.719,56.982,28.523,56.982,26.673z"/>
			<path fill="#FFFFFF" d="M68.857,26.673c0,2.813-1.506,4.621-3.778,4.621c-1.29,0-2.314-0.577-2.849-1.584h-0.043v4.484h-1.858
				V22.146h1.799v1.506h0.034c0.517-0.972,1.618-1.601,2.883-1.601C67.343,22.051,68.857,23.867,68.857,26.673z M66.947,26.673
				c0-1.833-0.947-3.038-2.393-3.038c-1.42,0-2.375,1.23-2.375,3.038c0,1.824,0.955,3.046,2.375,3.046
				C66,29.719,66.947,28.523,66.947,26.673z"/>
			<path fill="#FFFFFF" d="M70.362,18.781h1.86v12.418h-1.86V18.781z"/>
			<path fill="#FFFFFF" d="M81.898,28.54c-0.25,1.644-1.851,2.771-3.898,2.771c-2.634,0-4.269-1.765-4.269-4.596
				c0-2.84,1.644-4.682,4.19-4.682c2.505,0,4.08,1.721,4.08,4.466v0.637h-6.395v0.112c0,1.549,0.973,2.564,2.436,2.564
				c1.032,0,1.842-0.49,2.091-1.273H81.898z M75.616,25.838h4.526c-0.043-1.386-0.93-2.298-2.221-2.298
				C76.639,23.54,75.711,24.47,75.616,25.838z"/>
			<path fill="#FFFFFF" d="M98.045,31.199v-9.14h-0.061l-3.743,9.045h-1.429l-3.753-9.045H89v9.14h-1.756V18.781h2.229l4.019,9.802
				h0.068l4.011-9.802h2.237v12.418H98.045z"/>
			<path fill="#FFFFFF" d="M109.718,31.199h-1.781v-1.558h-0.043c-0.517,1.084-1.421,1.661-2.806,1.661
				c-1.971,0-3.176-1.273-3.176-3.348v-5.81h1.858v5.448c0,1.377,0.654,2.108,1.937,2.108c1.343,0,2.151-0.93,2.151-2.341v-5.216
				h1.859V31.199z"/>
			<path fill="#FFFFFF" d="M115.011,22.043c2.006,0,3.442,1.109,3.485,2.71h-1.747c-0.077-0.8-0.757-1.29-1.79-1.29
				c-1.007,0-1.678,0.464-1.678,1.17c0,0.542,0.447,0.903,1.386,1.136l1.523,0.354c1.824,0.438,2.513,1.109,2.513,2.436
				c0,1.635-1.549,2.754-3.761,2.754c-2.135,0-3.571-1.094-3.709-2.746h1.841c0.13,0.869,0.826,1.334,1.954,1.334
				c1.11,0,1.808-0.456,1.808-1.179c0-0.56-0.345-0.86-1.291-1.102l-1.618-0.396c-1.636-0.396-2.462-1.231-2.462-2.487
				C111.465,23.136,112.903,22.043,115.011,22.043z"/>
			<path fill="#FFFFFF" d="M120.159,19.762c0-0.594,0.481-1.067,1.075-1.067c0.603,0,1.085,0.473,1.085,1.067
				c0,0.585-0.482,1.059-1.085,1.059C120.64,20.821,120.159,20.347,120.159,19.762z M120.305,22.146h1.858v9.054h-1.858V22.146z"/>
			<path fill="#FFFFFF" d="M130.172,25.261c-0.163-0.955-0.912-1.669-2.134-1.669c-1.429,0-2.376,1.196-2.376,3.081
				c0,1.928,0.956,3.089,2.393,3.089c1.153,0,1.911-0.576,2.117-1.626h1.79c-0.206,1.901-1.729,3.176-3.924,3.176
				c-2.582,0-4.269-1.765-4.269-4.639c0-2.814,1.687-4.639,4.251-4.639c2.323,0,3.77,1.463,3.925,3.227H130.172z"/>
		</g>
	</g>
	<g>
		<g>
			<linearGradient id="SVGID_7_" gradientUnits="userSpaceOnUse" x1="20.0952" y1="32.4857" x2="20.0952" y2="7.9623">
				<stop  offset="0" style="stop-color:#FA233B"/>
				<stop  offset="1" style="stop-color:#FB5C74"/>
			</linearGradient>
			<path fill-rule="evenodd" clip-rule="evenodd" fill="url(#SVGID_7_)" d="M32.677,15.291c0-0.301,0-0.601-0.002-0.902
				c-0.002-0.253-0.004-0.506-0.011-0.759c-0.015-0.551-0.047-1.107-0.145-1.653c-0.099-0.554-0.262-1.069-0.518-1.572
				c-0.252-0.494-0.58-0.946-0.972-1.338c-0.392-0.392-0.844-0.721-1.338-0.972c-0.503-0.256-1.018-0.418-1.571-0.518
				c-0.545-0.098-1.102-0.131-1.653-0.145c-0.253-0.007-0.506-0.01-0.759-0.011C25.407,7.42,25.106,7.42,24.805,7.42h-9.42
				c-0.301,0-0.601,0-0.902,0.002c-0.253,0.002-0.506,0.004-0.759,0.011c-0.551,0.015-1.108,0.047-1.653,0.145
				C11.518,7.678,11.003,7.84,10.5,8.096c-0.494,0.252-0.946,0.58-1.338,0.972C8.77,9.46,8.441,9.912,8.19,10.406
				c-0.256,0.503-0.418,1.018-0.518,1.572c-0.098,0.545-0.13,1.101-0.145,1.653c-0.007,0.253-0.01,0.506-0.011,0.759
				c-0.002,0.301-0.002,0.601-0.002,0.902v9.42c0,0.301,0,0.601,0.002,0.902c0.002,0.253,0.004,0.506,0.011,0.759
				c0.015,0.551,0.047,1.107,0.145,1.653c0.099,0.554,0.262,1.069,0.518,1.572c0.252,0.494,0.58,0.946,0.972,1.338
				c0.392,0.392,0.844,0.721,1.338,0.972c0.503,0.256,1.018,0.418,1.571,0.518c0.545,0.098,1.102,0.131,1.653,0.145
				c0.253,0.007,0.506,0.01,0.759,0.011c0.301,0.002,0.601,0.002,0.902,0.002h9.42c0.301,0,0.601,0,0.902-0.002
				c0.253-0.002,0.506-0.004,0.759-0.011c0.551-0.015,1.108-0.047,1.653-0.145c0.553-0.099,1.068-0.262,1.571-0.518
				c0.494-0.252,0.946-0.58,1.338-0.972c0.392-0.392,0.72-0.844,0.972-1.338c0.256-0.503,0.418-1.018,0.518-1.572
				c0.098-0.545,0.13-1.101,0.145-1.653c0.007-0.253,0.01-0.506,0.011-0.759c0.002-0.301,0.002-0.601,0.002-0.902V15.291z"/>
		</g>
		<g id="Glyph_2_">
			<g>
				<path fill-rule="evenodd" clip-rule="evenodd" fill="#FFFFFF" d="M25.303,11.264c-0.061,0.005-0.601,0.101-0.666,0.115
					l-7.479,1.509l-0.003,0.001c-0.195,0.042-0.348,0.11-0.466,0.21c-0.143,0.12-0.222,0.289-0.252,0.486
					c-0.006,0.042-0.017,0.127-0.017,0.253c0,0,0,7.641,0,9.36c0,0.218-0.017,0.432-0.166,0.612
					c-0.148,0.181-0.331,0.236-0.546,0.279c-0.163,0.033-0.326,0.066-0.488,0.099c-0.618,0.125-1.02,0.209-1.384,0.35
					c-0.348,0.135-0.609,0.307-0.816,0.525c-0.411,0.431-0.579,1.016-0.521,1.564c0.049,0.467,0.26,0.915,0.621,1.246
					c0.244,0.223,0.548,0.393,0.908,0.466c0.373,0.075,0.77,0.049,1.349-0.068c0.309-0.062,0.598-0.16,0.874-0.322
					c0.272-0.161,0.506-0.375,0.688-0.637c0.183-0.262,0.302-0.554,0.367-0.863c0.067-0.319,0.084-0.608,0.084-0.927v-8.119
					c0-0.435,0.123-0.55,0.474-0.634c0,0,6.217-1.254,6.506-1.31c0.405-0.078,0.595,0.038,0.595,0.462l0,5.542
					c0,0.22-0.002,0.441-0.151,0.624c-0.148,0.181-0.332,0.236-0.546,0.279c-0.163,0.033-0.326,0.066-0.488,0.098
					c-0.618,0.125-1.02,0.209-1.384,0.35c-0.348,0.135-0.609,0.307-0.816,0.525c-0.411,0.431-0.594,1.016-0.536,1.564
					c0.049,0.467,0.274,0.915,0.635,1.246c0.244,0.223,0.548,0.389,0.908,0.461c0.373,0.075,0.77,0.049,1.349-0.068
					c0.309-0.062,0.598-0.155,0.874-0.318c0.272-0.161,0.506-0.375,0.688-0.637c0.183-0.262,0.301-0.554,0.367-0.863
					c0.067-0.319,0.07-0.608,0.07-0.927V11.926C25.934,11.495,25.707,11.229,25.303,11.264z"/>
			</g>
		</g>
	</g>
</g>
<g>
</g>
<g>
</g>
<g>
</g>
<g>
</g>
<g>
</g>
<g>
</g>
<g>
</g>
<g>
</g>
<g>
</g>
<g>
</g>
<g>
</g>
<g>
</g>
<g>
</g>
<g>
</g>
<g>
</g>
</svg>
